<svg width="21" height="21" viewBox="0 0 21 21" fill="none" xmlns="http://www.w3.org/2000/svg">
<g clip-path="url(#clip0_128_1326)">
<path d="M10.8389 6.81472C10.8389 7.52272 10.8389 8.30272 10.8389 9.15472C10.8389 10.0067 10.8389 10.8407 10.8389 11.6567C10.8389 12.4727 10.8389 13.1987 10.8389 13.8347C10.8389 14.1347 10.7549 14.3627 10.5869 14.5187C10.4309 14.6747 10.2449 14.7527 10.0289 14.7527C9.81295 14.7527 9.62095 14.6747 9.45295 14.5187C9.29695 14.3627 9.21895 14.1347 9.21895 13.8347C9.21895 13.2947 9.21895 12.7127 9.21895 12.0887C9.21895 11.4647 9.21895 10.8407 9.21895 10.2167C9.21895 9.58072 9.21895 8.97472 9.21895 8.39872C9.21895 7.81072 9.21895 7.28272 9.21895 6.81472C9.21895 6.50272 9.29695 6.27472 9.45295 6.13072C9.62095 5.97472 9.81295 5.89672 10.0289 5.89672C10.2449 5.89672 10.4309 5.97472 10.5869 6.13072C10.7549 6.27472 10.8389 6.50272 10.8389 6.81472ZM13.4489 11.1527C12.6929 11.1527 11.9009 11.1527 11.0729 11.1527C10.2569 11.1527 9.45895 11.1527 8.67895 11.1527C7.91095 11.1527 7.22095 11.1527 6.60895 11.1527C6.30895 11.1527 6.08095 11.0747 5.92495 10.9187C5.76895 10.7507 5.69095 10.5587 5.69095 10.3427C5.69095 10.1267 5.76895 9.94072 5.92495 9.78472C6.08095 9.61672 6.30895 9.53272 6.60895 9.53272C7.08895 9.53272 7.61095 9.53272 8.17495 9.53272C8.75095 9.53272 9.33895 9.53272 9.93895 9.53272C10.5509 9.53272 11.1569 9.53272 11.7569 9.53272C12.3569 9.53272 12.9209 9.53272 13.4489 9.53272C13.7609 9.53272 13.9889 9.61672 14.1329 9.78472C14.2889 9.94072 14.3669 10.1267 14.3669 10.3427C14.3669 10.5587 14.2889 10.7507 14.1329 10.9187C13.9889 11.0747 13.7609 11.1527 13.4489 11.1527Z" fill="white"/>
</g>
<defs>
<clipPath id="clip0_128_1326">
<rect width="20.4536" height="20.4536" fill="white"/>
</clipPath>
</defs>
</svg>
